Coordinates
version=1
nRows=41
nColumns=38
inDegrees=no

Units are S.I. units (second, meters, Newtons, ...)
If the header above contains a line with 'inDegrees', this indicates whether rotational values are in degrees (yes) or radians (no).

endheader
time	pelvis_tilt	pelvis_list	pelvis_rotation	pelvis_tx	pelvis_ty	pelvis_tz	hip_flexion_r	hip_adduction_r	hip_rotation_r	knee_angle_r	ankle_angle_r	subtalar_angle_r	mtp_angle_r	hip_flexion_l	hip_adduction_l	hip_rotation_l	knee_angle_l	ankle_angle_l	subtalar_angle_l	mtp_angle_l	lumbar_extension	lumbar_bending	lumbar_rotation	arm_flex_r	arm_add_r	arm_rot_r	elbow_flex_r	pro_sup_r	wrist_flex_r	wrist_dev_r	arm_flex_l	arm_add_l	arm_rot_l	elbow_flex_l	pro_sup_l	wrist_flex_l	wrist_dev_l
0.5	-2.55317	1.51505	-2.18373	0.747108	0.219903	1.00539	0.548517	-0.212043	-0.144099	1.02241	-0.0421388	0	0	-0.057989	0.0900018	-0.181171	0.220869	0.158371	0	0	-0.291761	-0.0432099	0.0231036	0.00717004	-0.193382	0.130154	0.337491	1.30071	0	0	0.0913731	-0.27449	0.421087	0.370075	1.25111	0	0
0.51	-2.5894	1.51727	-2.14641	0.747193	0.2275	1.00505	0.548235	-0.210763	-0.164086	0.97767	-0.0325109	0	0	-0.0660698	0.0864932	-0.18047	0.221051	0.163136	0	0	-0.295433	-0.0399814	0.0229365	0.0122538	-0.193515	0.132783	0.336561	1.29563	0	0	0.097009	-0.273163	0.419275	0.368175	1.25317	0	0
0.52	-2.63937	1.51923	-2.0938	0.747234	0.235242	1.00471	0.545287	-0.209135	-0.186565	0.931511	-0.0239379	0	0	-0.07444	0.0823921	-0.178436	0.221483	0.168004	0	0	-0.299479	-0.035919	0.0215965	0.0161985	-0.193847	0.134069	0.337315	1.29228	0	0	0.101886	-0.272021	0.416963	0.367481	1.25532	0	0
0.53	-2.70935	1.52109	-2.02111	0.747323	0.243083	1.00437	0.540571	-0.206318	-0.210954	0.884204	-0.0169789	0	0	-0.0824408	0.0772249	-0.176735	0.223263	0.174397	0	0	-0.303864	-0.0308983	0.0208426	0.0190734	-0.194719	0.134319	0.339624	1.28986	0	0	0.106353	-0.270946	0.414943	0.367951	1.25731	0	0
0.54	-2.8133	1.52286	-1.91449	0.747517	0.25106	1.00405	0.533661	-0.201667	-0.238689	0.834868	-0.0110092	0	0	-0.0903132	0.0702907	-0.175349	0.226121	0.181065	0	0	-0.30849	-0.0243858	0.0208465	0.0209218	-0.196203	0.134377	0.343377	1.28727	0	0	0.110431	-0.269892	0.412928	0.369305	1.25994	0	0
0.55	-2.95086	1.52387	-1.77391	0.74781	0.259199	1.00375	0.524094	-0.195147	-0.269475	0.783327	-0.00421899	0	0	-0.0983785	0.0616711	-0.174918	0.229729	0.187939	0	0	-0.313457	-0.0165567	0.0210165	0.0221316	-0.197907	0.134274	0.347729	1.2847	0	0	0.114025	-0.268902	0.410718	0.371198	1.26299	0	0
0.56	-3.11057	1.52349	-1.61099	0.748204	0.267482	1.00349	0.512155	-0.186528	-0.302198	0.730133	0.00301895	0	0	-0.106645	0.0516738	-0.175688	0.234393	0.196342	0	0	-0.318916	-0.00780905	0.0213378	0.0234341	-0.199692	0.134024	0.35167	1.28289	0	0	0.117377	-0.267886	0.408284	0.373052	1.26593	0	0
0.57	3.00528	1.52148	-1.44115	0.748768	0.275865	1.00323	0.498768	-0.175303	-0.335455	0.676173	0.0112688	0	0	-0.115601	0.0407499	-0.177112	0.238773	0.204434	0	0	-0.324748	0.00144411	0.0226925	0.025097	-0.201573	0.134245	0.354836	1.28152	0	0	0.120666	-0.26687	0.40607	0.374842	1.2688	0	0
0.58	2.84507	1.51818	-1.27904	0.749512	0.284387	1.00291	0.484767	-0.161688	-0.369077	0.622076	0.0197616	0	0	-0.125035	0.0290681	-0.17973	0.242629	0.212166	0	0	-0.330103	0.0108924	0.0247122	0.0269202	-0.203328	0.135048	0.356835	1.28012	0	0	0.123436	-0.265864	0.403322	0.37665	1.27157	0	0
0.59	2.69976	1.5135	-1.13228	0.750416	0.293066	1.00252	0.469974	-0.145651	-0.402724	0.567202	0.0268703	0	0	-0.13493	0.0165011	-0.183877	0.246257	0.220561	0	0	-0.335183	0.0206239	0.0270228	0.0289615	-0.205048	0.137091	0.35785	1.27829	0	0	0.125686	-0.264801	0.400147	0.378088	1.27473	0	0
0.6	2.59402	1.50433	-1.02279	0.751428	0.302291	1.00228	0.440095	-0.111926	-0.403316	0.4831	0.0298985	0	0	-0.14975	0.00192659	-0.187963	0.248976	0.229979	0	0	-0.342898	0.0315708	0.0273347	0.0306662	-0.206364	0.142141	0.358142	1.27429	0	0	0.126844	-0.264186	0.395519	0.379616	1.28063	0	0
0.61	2.47652	1.50024	-0.907399	0.752987	0.311	1.00171	0.437241	-0.103108	-0.453568	0.452846	0.0456965	0	0	-0.157425	-0.0104873	-0.195048	0.251959	0.237658	0	0	-0.345353	0.0394	0.0328742	0.0336246	-0.206813	0.144448	0.356671	1.27207	0	0	0.129063	-0.263498	0.393762	0.380104	1.28314	0	0
0.62	2.39304	1.49091	-0.823006	0.754449	0.320225	1.00139	0.417654	-0.077363	-0.475192	0.39224	0.0540833	0	0	-0.170217	-0.0257033	-0.20131	0.255234	0.24594	0	0	-0.351397	0.0500704	0.0356017	0.0367541	-0.207279	0.150164	0.354082	1.26422	0	0	0.130473	-0.261891	0.38586	0.379056	1.294	0	0
0.63	2.32085	1.4851	-0.752413	0.756171	0.329496	1.00074	0.40212	-0.0509904	-0.48458	0.332449	0.0661142	0	0	-0.180321	-0.0377161	-0.20864	0.257363	0.251905	0	0	-0.353894	0.0571828	0.0399634	0.0392626	-0.207077	0.154191	0.350918	1.26042	0	0	0.131227	-0.261009	0.380842	0.378469	1.30119	0	0
0.64	2.25175	1.47639	-0.679245	0.757955	0.337858	0.999798	0.390487	-0.00905331	-0.45142	0.272601	0.0497186	0	0	-0.187484	-0.0471821	-0.19252	0.263308	0.244803	0	0	-0.358812	0.0672258	0.0418228	0.0417819	-0.205691	0.152823	0.348128	1.26178	0	0	0.135012	-0.26138	0.378885	0.378772	1.30545	0	0
0.65	2.21626	1.46622	-0.643644	0.759803	0.347789	0.999441	0.360605	0.024387	-0.438391	0.193354	0.0430648	0	0	-0.202276	-0.0617337	-0.198418	0.26521	0.249461	0	0	-0.364236	0.0764259	0.0456451	0.0431746	-0.204165	0.148552	0.344629	1.26682	0	0	0.134964	-0.261239	0.377435	0.378868	1.30852	0	0
0.66	2.21413	1.45671	-0.64481	0.762003	0.359309	0.999456	0.314233	0.0505411	-0.443755	0.0950824	0.0420207	0	0	-0.224468	-0.0806461	-0.230398	0.263057	0.267713	0	0	-0.36951	0.0822561	0.0507167	0.0426164	-0.20186	0.142728	0.341099	1.27308	0	0	0.13104	-0.261897	0.378149	0.379444	1.30763	0	0
0.67	2.22005	1.44921	-0.649034	0.763829	0.369958	0.998822	0.280587	0.0774194	-0.416135	0.021344	0.022111	0	0	-0.241523	-0.0904075	-0.234788	0.264489	0.271383	0	0	-0.374743	0.0870626	0.0520378	0.0414575	-0.199674	0.137817	0.338428	1.27667	0	0	0.128717	-0.264111	0.383191	0.382175	1.30267	0	0
0.68	2.2185	1.44418	-0.644706	0.765046	0.379399	0.997633	0.274571	0.0958741	-0.387987	0.00541208	0.0107734	0	0	-0.251112	-0.089681	-0.21004	0.270558	0.25808	0	0	-0.379329	0.0916585	0.0520766	0.0412951	-0.199499	0.136531	0.336682	1.27831	0	0	0.127898	-0.264935	0.384507	0.384968	1.30169	0	0
0.69	2.24107	1.44127	-0.667329	0.76664	0.390862	0.996635	0.269462	0.101722	-0.41519	0.00514858	0.0262961	0	0	-0.266948	-0.0930555	-0.2212	0.272328	0.264024	0	0	-0.381143	0.0914931	0.0533575	0.0369023	-0.198547	0.135283	0.335353	1.27945	0	0	0.123449	-0.265294	0.382987	0.38584	1.30131	0	0
0.7	2.24937	1.44029	-0.678327	0.768397	0.402358	0.995921	0.268705	0.0975081	-0.455268	0.0199101	0.0431151	0	0	-0.282058	-0.102805	-0.237997	0.274143	0.272161	0	0	-0.382287	0.0916347	0.0559792	0.0339447	-0.199129	0.134947	0.335309	1.28134	0	0	0.118759	-0.264491	0.381534	0.386985	1.30102	0	0
0.71	2.26122	1.43711	-0.690945	0.769645	0.413568	0.994959	0.279306	0.093411	-0.488959	0.0644602	0.0549592	0	0	-0.294653	-0.106908	-0.240756	0.281368	0.274376	0	0	-0.384543	0.0941888	0.0577303	0.0296577	-0.201053	0.133746	0.336859	1.28342	0	0	0.113967	-0.263081	0.38104	0.38843	1.30155	0	0
0.72	2.27831	1.4328	-0.705404	0.770314	0.424534	0.993638	0.297188	0.0909536	-0.505705	0.126948	0.0563034	0	0	-0.304164	-0.104092	-0.225909	0.293023	0.265208	0	0	-0.386934	0.0983732	0.0569931	0.0235831	-0.203806	0.131237	0.339945	1.2849	0	0	0.108723	-0.26151	0.381605	0.390368	1.30336	0	0
0.73	2.29838	1.43185	-0.722984	0.771161	0.436525	0.992459	0.306616	0.0801373	-0.529321	0.178221	0.0618288	0	0	-0.314772	-0.106087	-0.223622	0.302441	0.26233	0	0	-0.385764	0.100064	0.0542465	0.0159135	-0.205924	0.128592	0.343572	1.28632	0	0	0.100629	-0.26018	0.380439	0.392276	1.305	0	0
0.74	2.31008	1.4314	-0.729682	0.77187	0.448281	0.991245	0.313121	0.0710239	-0.531841	0.221143	0.0603846	0	0	-0.322003	-0.108865	-0.209198	0.314986	0.252776	0	0	-0.383476	0.103427	0.048553	0.00839165	-0.208038	0.126096	0.347704	1.28911	0	0	0.0918565	-0.258839	0.37787	0.395124	1.30638	0	0
0.75	2.33858	1.42982	-0.750738	0.772614	0.461773	0.989867	0.310081	0.0625308	-0.553159	0.250022	0.0685786	0	0	-0.331614	-0.114241	-0.216472	0.329182	0.255651	0	0	-0.378418	0.105709	0.0408385	-0.0036546	-0.208566	0.122451	0.35053	1.29268	0	0	0.0798901	-0.258393	0.375303	0.396629	1.30763	0	0
0.76	2.35389	1.42776	-0.75724	0.773501	0.474704	0.988601	0.307392	0.0567625	-0.559483	0.273635	0.0565116	0	0	-0.336745	-0.122264	-0.213373	0.348888	0.25185	0	0	-0.373537	0.109939	0.0326541	-0.0147092	-0.209124	0.118822	0.35351	1.29622	0	0	0.0693157	-0.257961	0.373624	0.397609	1.30867	0	0
0.77	2.3553	1.42606	-0.750413	0.774662	0.487355	0.98751	0.307462	0.0511352	-0.565105	0.296537	0.0276393	0	0	-0.33658	-0.132299	-0.210092	0.374181	0.246641	0	0	-0.367549	0.114684	0.0263291	-0.0253923	-0.209578	0.115067	0.356085	1.29978	0	0	0.0605358	-0.256981	0.372621	0.396733	1.31013	0	0
0.78	2.33688	1.42573	-0.728582	0.776251	0.500348	0.987136	0.306823	0.0347534	-0.590375	0.323556	0.0112781	0	0	-0.333059	-0.150197	-0.219749	0.402175	0.246693	0	0	-0.359733	0.11936	0.0246373	-0.0351622	-0.210159	0.110159	0.358676	1.30333	0	0	0.0519937	-0.254498	0.370486	0.394877	1.31271	0	0
0.79	2.31642	1.42288	-0.70347	0.777626	0.512582	0.987099	0.314547	0.0244942	-0.604797	0.366811	0.0045417	0	0	-0.324182	-0.163247	-0.216773	0.437653	0.231901	0	0	-0.354293	0.126332	0.0242958	-0.0446922	-0.211322	0.103476	0.361596	1.30697	0	0	0.0458157	-0.250799	0.367327	0.393475	1.3165	0	0
0.8	2.29968	1.41878	-0.684387	0.778991	0.524781	0.987667	0.319167	0.0161233	-0.616076	0.408749	0.00839473	0	0	-0.314202	-0.175722	-0.213385	0.475646	0.20911	0	0	-0.350617	0.133753	0.0260307	-0.05316	-0.213107	0.0957953	0.364355	1.3103	0	0	0.0391768	-0.246034	0.361643	0.394028	1.32112	0	0
0.81	2.28428	1.41398	-0.66874	0.780383	0.536855	0.988562	0.318853	0.0128701	-0.62143	0.439935	0.0115761	0	0	-0.301745	-0.187806	-0.209061	0.517661	0.179859	0	0	-0.347784	0.141393	0.0290368	-0.0603306	-0.215573	0.0883432	0.366494	1.31355	0	0	0.0321675	-0.240893	0.354948	0.395631	1.32594	0	0
0.82	2.2547	1.4095	-0.641353	0.782038	0.548533	0.989431	0.316737	0.0165504	-0.62226	0.459442	0.0115374	0	0	-0.282727	-0.200515	-0.202482	0.566016	0.146575	0	0	-0.34352	0.149405	0.0337775	-0.06631	-0.218731	0.0820941	0.368462	1.31714	0	0	0.0252983	-0.23643	0.34918	0.398209	1.33116	0	0
0.83	2.19876	1.40566	-0.589705	0.784051	0.559693	0.990017	0.315095	0.0273677	-0.621371	0.467942	0.0111463	0	0	-0.2548	-0.215599	-0.195357	0.620982	0.109675	0	0	-0.33598	0.158649	0.0402604	-0.0710472	-0.220992	0.0667684	0.369465	1.33355	0	0	0.019585	-0.230982	0.336885	0.397982	1.34964	0	0
0.84	2.13467	1.40117	-0.53045	0.786267	0.570333	0.990459	0.311316	0.042109	-0.622859	0.468349	0.0146976	0	0	-0.222001	-0.231849	-0.186199	0.67935	0.0725632	0	0	-0.327671	0.168586	0.0468039	-0.0746099	-0.224135	0.0573004	0.370627	1.34392	0	0	0.0149068	-0.227032	0.332062	0.397138	1.35852	0	0
0.85	2.06718	1.3968	-0.466256	0.788391	0.580615	0.990699	0.307018	0.0566742	-0.629444	0.465228	0.0207475	0	0	-0.184144	-0.247637	-0.17216	0.740133	0.0336152	0	0	-0.317754	0.178848	0.0510022	-0.0783043	-0.228425	0.0537283	0.373831	1.34891	0	0	0.0102053	-0.224525	0.33326	0.397256	1.35955	0	0
0.86	1.99985	1.39301	-0.400454	0.79033	0.590601	0.990756	0.303506	0.0701151	-0.636043	0.459686	0.0262255	0	0	-0.142081	-0.26114	-0.152412	0.802085	-0.00512891	0	0	-0.306242	0.188592	0.0527405	-0.0830665	-0.23367	0.0540102	0.380456	1.35072	0	0	0.00472033	-0.223581	0.338428	0.400612	1.35546	0	0
0.87	1.93691	1.38972	-0.337543	0.792051	0.600349	0.990747	0.301141	0.0817461	-0.639859	0.454852	0.0319519	0	0	-0.0974152	-0.271323	-0.12773	0.864111	-0.0435361	0	0	-0.293965	0.197428	0.0522523	-0.0888869	-0.239177	0.0544569	0.390391	1.35129	0	0	-0.00216879	-0.224097	0.346062	0.40853	1.34594	0	0
0.88	1.88407	1.38643	-0.283432	0.793515	0.6099	0.990892	0.298743	0.0910864	-0.640899	0.45239	0.0398799	0	0	-0.0530119	-0.278577	-0.101093	0.923575	-0.0824284	0	0	-0.282647	0.205517	0.0503012	-0.095599	-0.244457	0.0522225	0.403207	1.35084	0	0	-0.00874445	-0.223927	0.351601	0.416544	1.33556	0	0
0.89	1.85473	1.38323	-0.252781	0.794815	0.619357	0.991489	0.29308	0.0977162	-0.639816	0.452384	0.0494111	0	0	-0.0137827	-0.282474	-0.0755349	0.977494	-0.122976	0	0	-0.275393	0.211927	0.0481154	-0.10087	-0.24912	0.0484334	0.414349	1.3513	0	0	-0.0141747	-0.222192	0.351602	0.422274	1.33066	0	0
0.9	1.8603	1.38076	-0.252419	0.796489	0.628728	0.992402	0.287666	0.111311	-0.625344	0.454784	0.0511142	0	0	0.0196178	-0.288694	-0.0508312	1.0261	-0.158507	0	0	-0.273186	0.215122	0.0446333	-0.107951	-0.251738	0.0422821	0.427445	1.35252	0	0	-0.0173989	-0.221565	0.350834	0.428027	1.32522	0	0
